<svg xmlns="http://www.w3.org/2000/svg" viewBox="0 0 260 260" role="img" aria-label="雷泽闪电水泽图标">
  <defs>
    <linearGradient id="wiseeff-icon-bg" x1="24" y1="22" x2="236" y2="240" gradientUnits="userSpaceOnUse">
      <stop stop-color="#002F87" />
      <stop offset="0.5" stop-color="#0052CC" />
      <stop offset="1" stop-color="#00978F" />
    </linearGradient>
    <linearGradient id="wiseeff-icon-bolt" x1="95" y1="42" x2="178" y2="193" gradientUnits="userSpaceOnUse">
      <stop stop-color="#FFFFFF" />
      <stop offset="1" stop-color="#57E4FF" />
    </linearGradient>
  </defs>
  <rect x="30" y="30" width="200" height="200" rx="48" fill="url(#wiseeff-icon-bg)" />
  <path class="wiseeff-icon-bolt" d="M148 43L83 127H122L100 194L184 91H139L148 43Z" fill="url(#wiseeff-icon-bolt)" />
  <path class="wiseeff-icon-bolt-highlight" d="M148 43L83 127H122L100 194L184 91H139L148 43Z" fill="none" stroke="#FFFFFF" stroke-opacity="0.2" stroke-width="7" stroke-linejoin="round" />
  <path class="wiseeff-icon-marsh-wave-primary" d="M73 176C96 163 119 163 142 176C160 186 177 188 196 180" fill="none" stroke="#FFFFFF" stroke-opacity="0.5" stroke-width="9" stroke-linecap="round" />
  <path class="wiseeff-icon-marsh-wave-secondary" d="M69 199C96 184 124 184 151 199C169 208 185 210 201 203" fill="none" stroke="#50DCFF" stroke-opacity="0.86" stroke-width="8" stroke-linecap="round" />
  <path class="wiseeff-icon-marsh-wave-tertiary" d="M91 219C113 211 135 211 157 220" fill="none" stroke="#FFFFFF" stroke-opacity="0.36" stroke-width="6" stroke-linecap="round" />
</svg>
